<?xml version="1.0" standalone="no"?>
<!DOCTYPE svg PUBLIC "-//W3C//DTD SVG 20010904//EN"
 "http://www.w3.org/TR/2001/REC-SVG-20010904/DTD/svg10.dtd">
<svg version="1.0" xmlns="http://www.w3.org/2000/svg"
 width="110.000000pt" height="110.000000pt" viewBox="0 0 110.000000 110.000000"
 preserveAspectRatio="xMidYMid meet">
<metadata>
Created by potrace 1.14, written by Peter Selinger 2001-2017
</metadata>
<g transform="translate(0.000000,110.000000) scale(0.100000,-0.100000)"
fill="#000000" stroke="none">
<path d="M0 550 l0 -550 550 0 550 0 0 550 0 550 -550 0 -550 0 0 -550z m480
423 c0 -8 -13 -13 -32 -13 -25 0 -29 3 -18 10 8 5 11 10 5 10 -5 0 -3 5 5 10
13 9 13 10 0 10 -13 0 -13 2 -1 9 16 10 40 -12 41 -36z m234 32 c37 -16 43
-32 30 -82 -8 -28 -28 -35 -59 -21 -33 15 -32 30 1 18 33 -13 34 -13 34 6 0 8
5 12 10 9 6 -3 10 -4 10 -1 0 4 -59 36 -68 36 -2 0 -2 -7 2 -15 3 -8 2 -15 -3
-15 -14 0 -21 42 -10 62 12 22 8 21 53 3z m106 -60 c5 3 11 1 14 -4 3 -5 -8
-14 -26 -20 -38 -13 -38 -13 -38 -2 0 16 34 45 38 32 2 -6 8 -9 12 -6z m-350
-6 c0 -5 -13 -9 -30 -9 -16 0 -30 4 -30 8 0 5 14 9 30 10 17 0 30 -4 30 -9z
m156 -11 c4 -6 -2 -7 -17 -3 -35 10 -45 23 -15 18 15 -3 29 -10 32 -15z m-313
-5 c-13 -8 -23 -23 -23 -31 0 -12 -3 -13 -11 -5 -17 17 7 53 34 52 l22 0 -22
-16z m517 -31 c-6 -2 -8 -8 -4 -13 3 -5 -2 -9 -10 -9 -19 0 -20 5 -5 32 9 17
13 18 20 7 5 -8 4 -15 -1 -17z m-295 0 c-3 -3 -11 0 -18 7 -9 10 -8 11 6 5 10
-3 15 -9 12 -12z m70 -2 c3 -6 -1 -7 -9 -4 -18 7 -21 14 -7 14 6 0 13 -4 16
-10z m58 -2 c3 -8 -5 -14 -20 -14 -22 -2 -23 -1 -6 12 22 17 20 16 26 2z
m-430 -11 c7 3 9 2 4 -2 -4 -5 -19 -9 -33 -10 -23 -1 -24 0 -7 12 11 9 19 10
21 3 2 -5 9 -7 15 -3z m197 -12 c0 -8 -6 -15 -14 -15 -8 0 -16 -4 -18 -9 -1
-4 -12 -5 -23 0 l-20 8 20 0 c11 1 27 6 35 12 12 8 10 9 -7 4 -14 -4 -23 -2
-23 4 0 6 11 11 25 11 16 0 25 -6 25 -15z m165 -3 c-3 -3 -11 0 -18 7 -9 10
-8 11 6 5 10 -3 15 -9 12 -12z m390 -60 c-3 -3 -11 0 -17 6 -16 16 -31 15 -21
0 11 -18 12 -67 2 -74 -5 -3 -12 1 -15 10 -3 8 -19 18 -35 21 -35 8 -35 8 -43
68 l-8 49 72 -37 c39 -21 68 -40 65 -43z m-262 62 c-7 -3 -9 -13 -6 -22 4 -14
3 -14 -5 -2 -12 16 -7 30 11 29 9 0 9 -2 0 -5z m102 -59 c0 -10 -5 -20 -11
-22 -13 -4 -27 24 -18 38 9 15 29 4 29 -16z m-538 -15 c1 -11 -4 -20 -10 -20
-7 0 -6 -4 3 -10 11 -7 11 -10 2 -10 -9 0 -10 -5 -4 -17 8 -13 4 -20 -15 -30
-34 -18 -50 -16 -62 5 -10 16 -10 16 -11 0 0 -20 -15 -24 -26 -6 -5 7 -3 8 6
3 8 -5 11 -4 6 3 -10 17 29 35 43 18 6 -7 8 -16 4 -19 -3 -4 -1 -7 5 -7 6 0
14 5 17 10 3 6 2 10 -3 10 -5 0 -7 11 -4 26 l5 25 -46 -28 c-26 -15 -48 -34
-50 -43 -2 -11 -6 -9 -15 8 -12 21 -9 24 65 61 96 47 88 45 90 21z m508 -20
c3 -6 -1 -7 -9 -4 -18 7 -21 14 -7 14 6 0 13 -4 16 -10z m-145 -36 c0 -16 -16
-19 -25 -4 -8 13 4 32 16 25 5 -4 9 -13 9 -21z m-72 -8 c3 -12 -1 -17 -10 -14
-7 3 -15 13 -16 22 -3 12 1 17 10 14 7 -3 15 -13 16 -22z m170 5 c3 -8 -1 -12
-9 -9 -7 2 -15 10 -17 17 -3 8 1 12 9 9 7 -2 15 -10 17 -17z m-30 -24 c2 -12
-1 -15 -12 -11 -10 4 -16 1 -16 -10 0 -10 -6 -13 -15 -10 -8 4 -15 12 -15 20
0 8 6 11 15 8 10 -4 15 0 15 11 0 21 24 14 28 -8z m218 -9 c4 -5 1 -15 -6 -21
-10 -9 -12 -8 -7 6 4 11 1 17 -8 17 -7 0 -16 4 -19 9 -4 5 3 7 14 4 11 -3 23
-10 26 -15z m-338 -22 c3 -12 -1 -17 -10 -14 -7 3 -15 13 -16 22 -3 12 1 17
10 14 7 -3 15 -13 16 -22z m202 -21 c-8 -9 -7 -14 1 -17 7 -2 9 -10 5 -16 -11
-18 -29 -3 -23 19 3 10 1 22 -4 25 -5 3 -7 10 -3 15 4 6 11 6 20 -2 10 -8 11
-15 4 -24z m-540 5 c-24 -15 -36 -11 -14 4 10 8 21 12 24 10 2 -3 -2 -9 -10
-14z m405 11 c3 -5 1 -12 -4 -16 -6 -3 -7 -13 -4 -22 4 -11 2 -14 -8 -11 -18
6 -22 58 -4 58 8 0 16 -4 20 -9z m175 -27 c0 -8 -4 -12 -10 -9 -5 3 -10 10
-10 16 0 5 5 9 10 9 6 0 10 -7 10 -16z m168 -56 c10 -13 11 -18 3 -18 -7 0
-10 -4 -6 -10 3 -5 -7 -5 -25 1 -16 6 -30 15 -30 21 0 5 -4 7 -8 4 -4 -2 -8 4
-8 14 0 15 5 18 24 13 21 -5 22 -3 17 23 l-5 29 11 -30 c6 -16 18 -38 27 -47z
m-798 54 c0 -8 -14 -16 -62 -40 -5 -2 -8 1 -8 7 0 8 37 30 68 40 1 1 2 -3 2
-7z m158 -6 c-15 -14 -58 -31 -58 -22 0 6 51 35 63 36 5 0 2 -6 -5 -14z m-81
-30 c-5 -15 -24 -18 -24 -3 0 8 6 14 14 14 7 0 12 -5 10 -11z m142 -9 c23 -20
151 -89 151 -82 0 3 14 -2 30 -10 17 -9 28 -20 25 -25 -6 -9 32 -25 52 -22 6
2 14 -1 17 -6 7 -12 -36 -7 -67 8 -17 8 -23 16 -16 20 7 5 5 9 -6 13 -10 5
-14 3 -9 -4 4 -7 1 -10 -7 -7 -8 3 -13 11 -11 17 1 7 -2 10 -8 6 -6 -3 -8 -11
-5 -16 4 -5 -1 -9 -9 -9 -10 0 -13 6 -9 17 5 12 2 15 -10 10 -21 -8 -47 1 -47
16 0 7 4 7 12 -1 7 -7 17 -12 22 -12 6 0 0 7 -12 16 -12 8 -27 12 -32 9 -5 -3
-23 2 -40 11 -17 11 -25 21 -19 25 7 4 5 9 -6 12 -9 4 -13 3 -10 -3 3 -6 1
-10 -4 -10 -6 0 -11 4 -11 10 0 5 -20 -3 -44 -18 -24 -15 -42 -29 -40 -31 2
-2 -4 -14 -13 -25 -11 -12 -5 -10 15 7 24 19 40 25 58 21 13 -3 34 -7 47 -8
13 0 24 -7 24 -14 0 -7 -7 -10 -14 -8 -15 6 -98 -32 -90 -40 3 -3 18 1 34 9
30 16 76 12 92 -7 7 -8 -4 -11 -38 -11 -36 0 -58 -7 -89 -29 -48 -33 -54 -51
-14 -43 15 3 45 8 67 12 22 4 46 14 53 23 6 9 12 12 12 6 -1 -17 -40 -60 -40
-44 0 9 -3 11 -8 5 -12 -17 -116 -58 -153 -60 -20 -2 -46 -8 -58 -14 -18 -10
-25 -7 -51 21 -37 41 -37 47 0 55 17 3 43 21 61 42 16 20 42 49 57 65 23 25
24 27 4 14 -12 -8 -39 -36 -59 -62 -30 -39 -38 -44 -51 -34 -13 11 -14 10 -7
-2 6 -12 5 -13 -6 -2 -15 14 -26 4 145 125 61 42 112 77 115 77 2 0 12 -6 20
-13z m-299 -1 c0 -3 -4 -8 -10 -11 -5 -3 -10 -1 -10 4 0 6 5 11 10 11 6 0 10
-2 10 -4z m4 -30 c-10 -8 -21 -12 -23 -10 -3 2 4 11 15 18 10 8 21 12 23 10 3
-2 -4 -11 -15 -18z m66 -21 c-7 -8 -16 -13 -20 -10 -4 3 -13 -2 -20 -10 -16
-19 -40 -19 -40 0 0 8 6 15 14 15 7 0 26 7 42 15 32 16 43 12 24 -10z m213 11
c9 -7 17 -17 17 -21 0 -4 -6 -3 -12 3 -13 10 -18 12 -39 12 -5 0 -7 5 -4 10 8
13 16 12 38 -4z m337 -11 c0 -8 -4 -17 -10 -20 -6 -4 -10 5 -10 20 0 15 4 24
10 20 6 -3 10 -12 10 -20z m247 -41 c3 -8 0 -21 -7 -29 -17 -21 -62 1 -58 29
2 12 7 24 12 28 13 8 45 -9 53 -28z m-512 -4 c-3 -5 0 -12 6 -16 8 -4 9 -3 5
4 -10 16 5 14 28 -3 10 -7 15 -19 11 -25 -5 -9 -1 -10 15 -5 16 5 21 4 18 -6
-3 -8 -12 -13 -20 -11 -9 1 -21 -5 -28 -13 -17 -20 -29 -19 -27 4 1 13 7 17
21 13 27 -7 11 17 -20 28 -15 6 -24 18 -24 30 0 12 5 18 10 15 6 -4 8 -10 5
-15z m214 -64 c16 2 33 -1 36 -6 9 -14 -13 -22 -33 -11 -19 10 -46 0 -48 -19
-1 -5 -2 -12 -3 -15 0 -3 -10 4 -21 15 -11 11 -27 20 -37 20 -19 0 -87 -49
-79 -58 4 -3 19 7 35 22 25 24 30 26 57 14 l29 -12 -26 -3 c-15 -2 -35 -13
-45 -24 -20 -23 -8 -26 16 -4 14 12 23 13 45 5 27 -10 39 -7 41 11 3 19 4 20
14 14 8 -5 8 -11 0 -20 -8 -9 0 -19 30 -38 l39 -27 28 25 c24 22 25 25 8 23
-15 -2 -19 2 -17 16 2 11 -1 15 -8 11 -6 -3 -9 -1 -8 6 2 6 -3 14 -11 17 -8 2
-11 0 -8 -5 3 -5 -3 -9 -13 -9 -10 0 -16 4 -14 8 3 4 -4 8 -16 8 -12 0 -18 5
-15 10 4 7 13 7 26 0 13 -8 25 -7 39 0 21 11 44 5 35 -10 -3 -5 -1 -11 5 -15
6 -4 8 -11 5 -16 -4 -5 4 -8 16 -6 12 1 23 -2 25 -8 4 -16 -286 -237 -303
-231 -23 9 75 108 99 100 12 -3 37 8 68 31 49 36 63 52 37 42 -16 -6 -41 12
-51 38 -5 11 -10 15 -12 9 -3 -6 -17 -9 -32 -6 -19 2 -33 -3 -46 -17 l-19 -21
52 5 c41 3 51 1 51 -12 0 -9 -6 -13 -15 -9 -8 3 -31 -1 -52 -9 -21 -7 -35 -14
-31 -14 14 -2 -66 -81 -82 -81 -10 0 -30 -10 -45 -21 l-27 -22 -36 37 c-36 36
-36 36 -15 51 11 8 23 27 25 42 3 16 8 37 12 48 3 11 -2 2 -13 -20 -11 -21
-17 -44 -13 -49 3 -6 -9 -1 -28 11 -19 12 -36 28 -39 35 -2 7 8 2 23 -11 14
-14 29 -22 32 -19 3 4 -4 11 -15 18 -12 6 -21 14 -21 19 0 10 44 29 84 37 23
4 27 2 20 -8 -5 -8 -1 -5 9 6 10 10 16 25 13 32 -3 7 0 11 7 8 7 -2 24 7 37
21 13 14 33 25 46 25 12 0 27 7 34 15 10 12 15 12 33 -5 25 -24 37 -25 37 -4
0 8 -4 13 -9 10 -5 -3 -14 1 -21 9 -7 8 -19 15 -26 15 -8 0 -14 5 -14 11 0 6
20 0 44 -14 28 -15 55 -23 75 -21z m269 -2 c7 -4 -12 -33 -25 -38 -12 -5 -13
-4 -5 7 12 14 7 27 -10 27 -5 0 -7 -4 -3 -9 3 -5 2 -12 -2 -14 -5 -3 -9 10
-10 29 l-2 34 27 -17 c15 -9 28 -18 30 -19z m-478 -34 c0 -5 -7 -10 -16 -10
-8 0 -12 5 -9 10 3 6 10 10 16 10 5 0 9 -4 9 -10z m456 -23 c6 0 11 -6 11 -13
0 -10 -7 -9 -29 2 -30 16 -39 31 -10 19 9 -4 22 -8 28 -8z m-863 -22 c-3 -9
-8 -14 -10 -11 -3 3 -2 9 2 15 9 16 15 13 8 -4z m677 -25 c0 -6 -6 -10 -13
-10 -19 0 -58 30 -52 41 7 11 65 -17 65 -31z m130 -35 c-23 -25 -40 -32 -40
-17 0 7 49 41 59 42 3 0 -6 -11 -19 -25z m-220 -35 c0 -5 -5 -10 -11 -10 -5 0
-7 5 -4 10 3 6 8 10 11 10 2 0 4 -4 4 -10z m148 -6 c-16 -8 -28 -20 -28 -27
-1 -15 -95 -80 -118 -82 -10 0 -24 -5 -32 -9 -13 -8 -13 -7 0 7 20 22 183 127
195 126 6 0 -2 -7 -17 -15z m42 -35 c-36 -31 -84 -61 -65 -41 14 16 89 71 95
71 3 0 -11 -13 -30 -30z m-530 -13 c0 -8 -61 -48 -66 -43 -3 2 10 14 28 26 35
22 38 23 38 17z"/>
<path d="M882 844 c10 -10 20 -15 24 -12 3 4 -5 12 -18 18 -22 12 -22 12 -6
-6z"/>
<path d="M470 550 c0 -5 5 -10 11 -10 5 0 7 5 4 10 -3 6 -8 10 -11 10 -2 0 -4
-4 -4 -10z"/>
<path d="M339 503 c-13 -15 -12 -15 9 -4 23 12 28 21 13 21 -5 0 -15 -7 -22
-17z"/>
<path d="M945 501 c-7 -12 29 -33 39 -24 3 3 6 13 5 22 0 12 -3 11 -9 -4 -7
-17 -9 -17 -9 -2 -1 18 -16 23 -26 8z"/>
</g>
</svg>
