<?xml version="1.0" standalone="no"?>
<!DOCTYPE svg PUBLIC "-//W3C//DTD SVG 20010904//EN"
 "http://www.w3.org/TR/2001/REC-SVG-20010904/DTD/svg10.dtd">
<svg version="1.0" xmlns="http://www.w3.org/2000/svg"
 width="512.000000pt" height="512.000000pt" viewBox="0 0 512.000000 512.000000"
 preserveAspectRatio="xMidYMid meet">
<metadata>
Created by potrace 1.14, written by Peter Selinger 2001-2017
</metadata>
<g transform="translate(0.000000,512.000000) scale(0.100000,-0.100000)"
fill="#000000" stroke="none">
<path d="M0 2560 l0 -2560 2560 0 2560 0 0 2560 0 2560 -2560 0 -2560 0 0
-2560z m2720 2505 c0 -9 9 -15 25 -15 16 0 25 -6 25 -15 0 -10 10 -15 30 -15
20 0 30 -5 30 -15 0 -8 7 -15 15 -15 8 0 15 -7 15 -15 0 -10 10 -15 30 -15 17
0 30 -4 30 -10 0 -5 11 -10 25 -10 16 0 25 -6 25 -15 0 -10 10 -15 30 -15 20
0 30 -5 30 -15 0 -8 7 -15 15 -15 8 0 15 -7 15 -15 0 -9 9 -15 25 -15 16 0 25
-6 25 -15 0 -10 10 -15 30 -15 20 0 30 -5 30 -15 0 -10 10 -15 30 -15 20 0 30
-5 30 -15 0 -8 7 -15 15 -15 8 0 15 -4 15 -10 0 -5 11 -10 25 -10 16 0 25 -6
25 -15 0 -10 10 -15 30 -15 20 0 30 -5 30 -15 0 -8 7 -15 15 -15 8 0 15 -7 15
-15 0 -10 10 -15 30 -15 20 0 30 -5 30 -15 0 -9 9 -15 25 -15 16 0 25 -6 25
-15 0 -10 10 -15 30 -15 17 0 30 -4 30 -10 0 -5 14 -10 30 -10 20 0 30 -5 30
-15 0 -8 7 -15 15 -15 8 0 15 -7 15 -15 0 -9 9 -15 25 -15 16 0 25 -6 25 -15
0 -10 10 -15 30 -15 20 0 30 -5 30 -15 0 -8 7 -15 15 -15 8 0 15 -7 15 -15 0
-9 9 -15 25 -15 16 0 25 -6 25 -15 0 -10 10 -15 30 -15 17 0 30 -4 30 -10 0
-5 14 -10 30 -10 20 0 30 -5 30 -15 0 -8 7 -15 15 -15 8 0 15 -7 15 -15 0 -9
9 -15 25 -15 16 0 25 -6 25 -15 0 -10 10 -15 30 -15 20 0 30 -5 30 -15 0 -10
10 -15 30 -15 20 0 30 -5 30 -15 0 -8 7 -15 15 -15 8 0 15 -4 15 -10 0 -5 11
-10 25 -10 16 0 25 -6 25 -15 0 -10 10 -15 30 -15 20 0 30 -5 30 -15 0 -10 10
-15 30 -15 20 0 30 -5 30 -15 0 -8 5 -15 10 -15 6 0 10 -7 10 -15 0 -10 10
-15 30 -15 20 0 30 -5 30 -15 0 -10 10 -15 30 -15 20 0 30 -5 30 -15 0 -9 10
-15 26 -15 26 0 54 -20 54 -39 0 -6 14 -11 30 -11 20 0 30 -5 30 -15 0 -10 10
-15 30 -15 27 0 30 -3 30 -30 0 -20 5 -30 15 -30 8 0 15 -5 15 -11 0 -14 25
-39 39 -39 8 0 11 -374 11 -1270 0 -1122 -2 -1270 -15 -1270 -9 0 -15 -9 -15
-25 0 -14 -4 -25 -10 -25 -5 0 -10 -7 -10 -15 0 -8 -7 -15 -15 -15 -8 0 -15
-7 -15 -15 0 -10 -10 -15 -30 -15 -20 0 -30 -5 -30 -15 0 -10 -10 -15 -30 -15
-16 0 -30 -5 -30 -11 0 -19 -28 -39 -54 -39 -16 0 -26 -6 -26 -15 0 -10 -10
-15 -30 -15 -20 0 -30 -5 -30 -15 0 -10 -10 -15 -30 -15 -20 0 -30 -5 -30 -15
0 -9 -9 -15 -25 -15 -16 0 -25 -6 -25 -15 0 -8 -7 -15 -15 -15 -8 0 -15 -7
-15 -15 0 -10 -10 -15 -30 -15 -20 0 -30 -5 -30 -15 0 -9 -9 -15 -25 -15 -14
0 -25 -4 -25 -10 0 -5 -13 -10 -30 -10 -20 0 -30 -5 -30 -15 0 -8 -7 -15 -15
-15 -8 0 -15 -7 -15 -15 0 -10 -10 -15 -30 -15 -20 0 -30 -5 -30 -15 0 -9 -9
-15 -25 -15 -16 0 -25 -6 -25 -15 0 -10 -10 -15 -30 -15 -20 0 -30 -5 -30 -15
0 -10 -10 -15 -30 -15 -16 0 -30 -4 -30 -10 0 -5 -7 -10 -15 -10 -8 0 -15 -7
-15 -15 0 -9 -9 -15 -25 -15 -16 0 -25 -6 -25 -15 0 -10 -10 -15 -30 -15 -20
0 -30 -5 -30 -15 0 -10 -10 -15 -30 -15 -20 0 -30 -5 -30 -15 0 -8 -4 -15 -10
-15 -5 0 -10 -7 -10 -15 0 -10 -10 -15 -30 -15 -20 0 -30 -5 -30 -15 0 -10
-10 -15 -30 -15 -16 0 -30 -4 -30 -10 0 -5 -13 -10 -30 -10 -20 0 -30 -5 -30
-15 0 -8 -4 -15 -10 -15 -5 0 -10 -7 -10 -15 0 -10 -10 -15 -30 -15 -20 0 -30
-5 -30 -15 0 -10 -10 -15 -30 -15 -20 0 -30 -5 -30 -15 0 -9 -9 -15 -25 -15
-16 0 -25 -6 -25 -15 0 -10 -10 -15 -30 -15 -16 0 -30 -4 -30 -10 0 -5 -7 -10
-15 -10 -8 0 -15 -7 -15 -15 0 -10 -10 -15 -30 -15 -20 0 -30 -5 -30 -15 0 -9
-9 -15 -25 -15 -16 0 -25 -6 -25 -15 0 -10 -10 -15 -30 -15 -20 0 -30 -5 -30
-15 0 -8 -7 -15 -15 -15 -8 0 -15 -7 -15 -15 0 -10 -10 -15 -30 -15 -20 0 -30
-5 -30 -15 0 -9 -9 -15 -25 -15 -14 0 -25 -4 -25 -10 0 -5 -13 -10 -30 -10
-20 0 -30 -5 -30 -15 0 -10 -10 -15 -30 -15 -20 0 -30 -5 -30 -15 0 -8 -7 -15
-15 -15 -8 0 -15 -7 -15 -15 0 -9 -9 -15 -25 -15 -16 0 -25 -6 -25 -15 0 -13
-23 -15 -145 -15 -122 0 -145 2 -145 15 0 9 -9 15 -25 15 -16 0 -25 6 -25 15
0 8 -7 15 -15 15 -8 0 -15 7 -15 15 0 10 -10 15 -30 15 -20 0 -30 5 -30 15 0
10 -10 15 -30 15 -16 0 -30 5 -30 10 0 6 -11 10 -25 10 -16 0 -25 6 -25 15 0
8 -7 15 -15 15 -8 0 -15 7 -15 15 0 10 -10 15 -30 15 -20 0 -30 5 -30 15 0 9
-9 15 -25 15 -16 0 -25 6 -25 15 0 10 -10 15 -30 15 -20 0 -30 5 -30 15 0 8
-7 15 -15 15 -8 0 -15 7 -15 15 0 10 -10 15 -30 15 -16 0 -30 5 -30 10 0 6
-11 10 -25 10 -16 0 -25 6 -25 15 0 8 -7 15 -15 15 -8 0 -15 7 -15 15 0 10
-10 15 -30 15 -20 0 -30 5 -30 15 0 10 -10 15 -30 15 -20 0 -30 5 -30 15 0 9
-9 15 -25 15 -16 0 -25 6 -25 15 0 8 -7 15 -15 15 -8 0 -15 5 -15 10 0 6 -13
10 -30 10 -20 0 -30 5 -30 15 0 10 -10 15 -30 15 -20 0 -30 5 -30 15 0 8 -4
15 -10 15 -5 0 -10 7 -10 15 0 10 -10 15 -30 15 -20 0 -30 5 -30 15 0 10 -10
15 -30 15 -20 0 -30 5 -30 15 0 9 -9 15 -25 15 -16 0 -25 6 -25 15 0 8 -7 15
-15 15 -8 0 -15 5 -15 10 0 6 -13 10 -30 10 -20 0 -30 5 -30 15 0 10 -10 15
-30 15 -20 0 -30 5 -30 15 0 9 -9 15 -25 15 -16 0 -25 6 -25 15 0 8 -7 15 -15
15 -8 0 -15 7 -15 15 0 10 -10 15 -30 15 -20 0 -30 5 -30 15 0 9 -10 15 -26
15 -26 0 -54 20 -54 39 0 6 -13 11 -30 11 -20 0 -30 5 -30 15 0 10 -10 15 -30
15 -20 0 -30 5 -30 15 0 9 -9 15 -25 15 -16 0 -25 6 -25 15 0 8 -7 15 -15 15
-8 0 -15 7 -15 15 0 10 -10 15 -30 15 -20 0 -30 5 -30 15 0 10 -10 15 -30 15
-16 0 -30 5 -30 10 0 6 -7 10 -15 10 -8 0 -15 7 -15 15 0 9 -9 15 -25 15 -16
0 -25 6 -25 15 0 10 -10 15 -30 15 -20 0 -30 5 -30 15 0 8 -7 15 -15 15 -8 0
-15 7 -15 15 0 8 -7 15 -15 15 -8 0 -15 7 -15 15 0 8 -4 15 -10 15 -5 0 -10
11 -10 25 0 16 -6 25 -15 25 -13 0 -15 144 -15 1240 0 1096 2 1240 15 1240 9
0 15 9 15 25 0 14 5 25 10 25 6 0 10 7 10 15 0 8 7 15 15 15 10 0 15 10 15 30
0 27 3 30 30 30 20 0 30 5 30 15 0 10 10 15 30 15 17 0 30 5 30 11 0 19 28 39
54 39 16 0 26 6 26 15 0 10 10 15 30 15 20 0 30 5 30 15 0 10 10 15 30 15 20
0 30 5 30 15 0 8 5 15 10 15 6 0 10 7 10 15 0 10 10 15 30 15 20 0 30 5 30 15
0 10 10 15 30 15 20 0 30 5 30 15 0 9 9 15 25 15 14 0 25 5 25 10 0 6 7 10 15
10 8 0 15 7 15 15 0 10 10 15 30 15 20 0 30 5 30 15 0 10 10 15 30 15 20 0 30
5 30 15 0 9 9 15 25 15 16 0 25 6 25 15 0 8 7 15 15 15 8 0 15 7 15 15 0 10
10 15 30 15 17 0 30 5 30 10 0 6 14 10 30 10 20 0 30 5 30 15 0 9 9 15 25 15
16 0 25 6 25 15 0 8 7 15 15 15 8 0 15 7 15 15 0 10 10 15 30 15 20 0 30 5 30
15 0 9 9 15 25 15 16 0 25 6 25 15 0 8 7 15 15 15 8 0 15 7 15 15 0 10 10 15
30 15 17 0 30 5 30 10 0 6 14 10 30 10 20 0 30 5 30 15 0 9 9 15 25 15 16 0
25 6 25 15 0 10 10 15 30 15 20 0 30 5 30 15 0 8 7 15 15 15 8 0 15 7 15 15 0
10 10 15 30 15 20 0 30 5 30 15 0 9 9 15 25 15 14 0 25 5 25 10 0 6 7 10 15
10 8 0 15 7 15 15 0 10 10 15 30 15 20 0 30 5 30 15 0 10 10 15 30 15 20 0 30
5 30 15 0 9 9 15 25 15 16 0 25 6 25 15 0 8 7 15 15 15 8 0 15 7 15 15 0 10
10 15 30 15 20 0 30 5 30 15 0 9 9 15 25 15 14 0 25 5 25 10 0 6 14 10 30 10
20 0 30 5 30 15 0 8 7 15 15 15 8 0 15 7 15 15 0 10 10 15 30 15 20 0 30 5 30
15 0 9 9 15 25 15 16 0 25 6 25 15 0 13 24 15 160 15 136 0 160 -2 160 -15z"/>
<path d="M2490 4325 c0 -8 -7 -15 -15 -15 -8 0 -15 -7 -15 -15 0 -10 -10 -15
-30 -15 -20 0 -30 -5 -30 -15 0 -9 -9 -15 -25 -15 -16 0 -25 -6 -25 -15 0 -10
-10 -15 -30 -15 -16 0 -30 -4 -30 -10 0 -5 -7 -10 -15 -10 -8 0 -15 -7 -15
-15 0 -10 -10 -15 -30 -15 -20 0 -30 -5 -30 -15 0 -9 -9 -15 -25 -15 -16 0
-25 -6 -25 -15 0 -8 -7 -15 -15 -15 -8 0 -15 -7 -15 -15 0 -10 -10 -15 -30
-15 -20 0 -30 -5 -30 -15 0 -9 -9 -15 -25 -15 -16 0 -25 -6 -25 -15 0 -10 -10
-15 -30 -15 -16 0 -30 -4 -30 -10 0 -5 -7 -10 -15 -10 -8 0 -15 -7 -15 -15 0
-10 -10 -15 -30 -15 -20 0 -30 -5 -30 -15 0 -9 -9 -15 -25 -15 -16 0 -25 -6
-25 -15 0 -8 -7 -15 -15 -15 -8 0 -15 -7 -15 -15 0 -10 -10 -15 -30 -15 -20 0
-30 -5 -30 -15 0 -10 -10 -15 -30 -15 -16 0 -30 -4 -30 -10 0 -5 -11 -10 -25
-10 -16 0 -25 -6 -25 -15 0 -8 -7 -15 -15 -15 -8 0 -15 -7 -15 -15 0 -10 -10
-15 -30 -15 -20 0 -30 -5 -30 -15 0 -10 -10 -15 -30 -15 -20 0 -30 -5 -30 -15
0 -8 -4 -15 -10 -15 -5 0 -10 -7 -10 -15 0 -10 -10 -15 -30 -15 -16 0 -30 -4
-30 -10 0 -5 14 -10 30 -10 20 0 30 -5 30 -15 0 -8 5 -15 10 -15 6 0 10 -7 10
-15 0 -10 10 -15 30 -15 20 0 30 -5 30 -15 0 -10 10 -15 30 -15 20 0 30 -5 30
-15 0 -8 7 -15 15 -15 8 0 15 -7 15 -15 0 -9 9 -15 25 -15 16 0 25 -6 25 -15
0 -10 10 -15 30 -15 17 0 30 -4 30 -10 0 -5 14 -10 30 -10 20 0 30 -5 30 -15
0 -8 7 -15 15 -15 8 0 15 -7 15 -15 0 -9 9 -15 25 -15 16 0 25 -6 25 -15 0
-10 10 -15 30 -15 20 0 30 -5 30 -15 0 -8 7 -15 15 -15 8 0 15 -7 15 -15 0
-10 10 -15 30 -15 17 0 30 -4 30 -10 0 -5 11 -10 25 -10 16 0 25 -6 25 -15 0
-10 10 -15 30 -15 20 0 30 -5 30 -15 0 -8 7 -15 15 -15 8 0 15 -7 15 -15 0 -9
9 -15 25 -15 16 0 25 -6 25 -15 0 -10 10 -15 30 -15 20 0 30 -5 30 -15 0 -8 7
-15 15 -15 8 0 15 -7 15 -15 0 -10 10 -15 30 -15 17 0 30 -4 30 -10 0 -5 11
-10 25 -10 16 0 25 -6 25 -15 0 -10 10 -15 30 -15 20 0 30 -5 30 -15 0 -8 7
-15 15 -15 8 0 15 -7 15 -15 0 -12 13 -15 55 -15 42 0 55 3 55 15 0 10 10 15
30 15 20 0 30 5 30 15 0 10 10 15 30 15 17 0 30 5 30 11 0 19 28 39 54 39 16
0 26 6 26 15 0 10 10 15 30 15 20 0 30 5 30 15 0 8 7 15 15 15 8 0 15 7 15 15
0 9 9 15 25 15 16 0 25 6 25 15 0 10 10 15 30 15 20 0 30 5 30 15 0 10 10 15
30 15 20 0 30 5 30 15 0 8 7 15 15 15 8 0 15 5 15 10 0 6 11 10 25 10 16 0 25
6 25 15 0 10 10 15 30 15 20 0 30 5 30 15 0 8 7 15 15 15 8 0 15 7 15 15 0 10
10 15 30 15 20 0 30 5 30 15 0 9 9 15 25 15 16 0 25 6 25 15 0 10 10 15 30 15
17 0 30 5 30 10 0 6 7 10 15 10 8 0 15 7 15 15 0 9 9 15 25 15 16 0 25 6 25
15 0 10 10 15 30 15 20 0 30 5 30 15 0 8 7 15 15 15 8 0 15 7 15 15 0 10 10
15 30 15 20 0 30 5 30 15 0 9 9 15 25 15 16 0 25 6 25 15 0 10 10 15 30 15 17
0 30 5 30 10 0 6 -13 10 -30 10 -20 0 -30 5 -30 15 0 9 -9 15 -25 15 -16 0
-25 6 -25 15 0 10 -10 15 -30 15 -20 0 -30 5 -30 15 0 8 -7 15 -15 15 -8 0
-15 7 -15 15 0 10 -10 15 -30 15 -20 0 -30 5 -30 15 0 9 -9 15 -25 15 -14 0
-25 5 -25 10 0 6 -7 10 -15 10 -8 0 -15 7 -15 15 0 10 -10 15 -30 15 -20 0
-30 5 -30 15 0 9 -9 15 -25 15 -16 0 -25 6 -25 15 0 10 -10 15 -30 15 -20 0
-30 5 -30 15 0 8 -7 15 -15 15 -8 0 -15 7 -15 15 0 10 -10 15 -30 15 -16 0
-30 5 -30 10 0 6 -11 10 -25 10 -16 0 -25 6 -25 15 0 8 -7 15 -15 15 -8 0 -15
7 -15 15 0 10 -10 15 -30 15 -20 0 -30 5 -30 15 0 10 -10 15 -30 15 -20 0 -30
5 -30 15 0 9 -9 15 -25 15 -16 0 -25 6 -25 15 0 8 -7 15 -15 15 -8 0 -15 7
-15 15 0 10 -10 15 -30 15 -16 0 -30 5 -30 10 0 6 -13 10 -30 10 -20 0 -30 5
-30 15 0 8 -4 15 -10 15 -5 0 -10 7 -10 15 0 10 -10 15 -30 15 -20 0 -30 5
-30 15 0 10 -10 15 -30 15 -20 0 -30 5 -30 15 0 12 -13 15 -55 15 -42 0 -55
-3 -55 -15z"/>
<path d="M980 2345 c0 -602 2 -685 15 -685 8 0 15 -4 15 -10 0 -5 14 -10 30
-10 20 0 30 -5 30 -15 0 -9 9 -15 25 -15 16 0 25 -6 25 -15 0 -8 7 -15 15 -15
8 0 15 -7 15 -15 0 -10 10 -15 30 -15 20 0 30 -5 30 -15 0 -10 10 -15 30 -15
20 0 30 -5 30 -15 0 -9 9 -15 25 -15 16 0 25 -6 25 -15 0 -8 7 -15 15 -15 8 0
15 -4 15 -10 0 -5 14 -10 30 -10 20 0 30 -5 30 -15 0 -9 9 -15 25 -15 16 0 25
-6 25 -15 0 -8 7 -15 15 -15 8 0 15 -7 15 -15 0 -10 10 -15 30 -15 20 0 30 -5
30 -15 0 -10 10 -15 30 -15 20 0 30 -5 30 -15 0 -9 9 -15 25 -15 14 0 25 -4
25 -10 0 -5 7 -10 15 -10 8 0 15 -7 15 -15 0 -10 10 -15 30 -15 20 0 30 -5 30
-15 0 -10 10 -15 30 -15 20 0 30 -5 30 -15 0 -8 5 -15 10 -15 6 0 10 -7 10
-15 0 -10 10 -15 30 -15 20 0 30 -5 30 -15 0 -10 10 -15 30 -15 17 0 30 -4 30
-10 0 -5 14 -10 30 -10 20 0 30 -5 30 -15 0 -8 5 -15 10 -15 6 0 10 -7 10 -15
0 -10 10 -15 30 -15 20 0 30 -5 30 -15 0 -10 10 -15 30 -15 20 0 30 -5 30 -15
0 -8 7 -15 15 -15 8 0 15 -7 15 -15 0 -8 5 -15 10 -15 7 0 10 240 10 700 l0
700 -25 0 c-16 0 -25 6 -25 15 0 10 -10 15 -30 15 -16 0 -30 5 -30 10 0 6 -7
10 -15 10 -8 0 -15 7 -15 15 0 9 -9 15 -25 15 -16 0 -25 6 -25 15 0 10 -10 15
-30 15 -20 0 -30 5 -30 15 0 8 -7 15 -15 15 -8 0 -15 7 -15 15 0 10 -10 15
-30 15 -20 0 -30 5 -30 15 0 9 -9 15 -25 15 -14 0 -25 5 -25 10 0 6 -13 10
-30 10 -20 0 -30 5 -30 15 0 8 -7 15 -15 15 -8 0 -15 7 -15 15 0 10 -10 15
-30 15 -20 0 -30 5 -30 15 0 9 -9 15 -25 15 -16 0 -25 6 -25 15 0 8 -7 15 -15
15 -8 0 -15 7 -15 15 0 10 -10 15 -30 15 -16 0 -30 5 -30 10 0 6 -13 10 -30
10 -20 0 -30 5 -30 15 0 9 -9 15 -25 15 -16 0 -25 6 -25 15 0 8 -7 15 -15 15
-8 0 -15 7 -15 15 0 10 -10 15 -30 15 -20 0 -30 5 -30 15 0 9 -9 15 -25 15
-16 0 -25 6 -25 15 0 8 -7 15 -15 15 -8 0 -15 7 -15 15 0 10 -10 15 -30 15
-16 0 -30 5 -30 10 0 6 -13 10 -30 10 -20 0 -30 5 -30 15 0 9 -9 15 -25 15
-16 0 -25 6 -25 15 0 8 -7 15 -15 15 -8 0 -15 7 -15 15 0 10 -10 15 -30 15
l-30 0 0 -685z"/>
<path d="M4080 3015 c0 -8 -7 -15 -15 -15 -8 0 -15 -7 -15 -15 0 -9 -9 -15
-25 -15 -16 0 -25 -6 -25 -15 0 -10 -10 -15 -30 -15 -16 0 -30 -4 -30 -10 0
-5 -13 -10 -30 -10 -20 0 -30 -5 -30 -15 0 -8 -7 -15 -15 -15 -8 0 -15 -7 -15
-15 0 -9 -9 -15 -25 -15 -16 0 -25 -6 -25 -15 0 -10 -10 -15 -30 -15 -20 0
-30 -5 -30 -15 0 -8 -7 -15 -15 -15 -8 0 -15 -7 -15 -15 0 -9 -9 -15 -25 -15
-16 0 -25 -6 -25 -15 0 -10 -10 -15 -30 -15 -16 0 -30 -4 -30 -10 0 -5 -13
-10 -30 -10 -20 0 -30 -5 -30 -15 0 -8 -7 -15 -15 -15 -8 0 -15 -7 -15 -15 0
-9 -9 -15 -25 -15 -16 0 -25 -6 -25 -15 0 -10 -10 -15 -30 -15 -20 0 -30 -5
-30 -15 0 -8 -7 -15 -15 -15 -8 0 -15 -7 -15 -15 0 -10 -10 -15 -30 -15 -16 0
-30 -4 -30 -10 0 -5 -11 -10 -25 -10 -16 0 -25 -6 -25 -15 0 -10 -10 -15 -30
-15 -20 0 -30 -5 -30 -15 0 -8 -7 -15 -15 -15 -8 0 -15 -7 -15 -15 0 -10 -10
-15 -30 -15 -20 0 -30 -5 -30 -15 0 -9 -9 -15 -25 -15 -16 0 -25 -6 -25 -15 0
-8 -7 -15 -15 -15 -8 0 -15 -4 -15 -10 0 -5 -13 -10 -30 -10 -20 0 -30 -5 -30
-15 0 -9 -9 -15 -25 -15 l-25 0 0 -700 c0 -460 3 -700 10 -700 6 0 10 7 10 15
0 8 7 15 15 15 8 0 15 7 15 15 0 10 10 15 30 15 20 0 30 5 30 15 0 10 10 15
30 15 20 0 30 5 30 15 0 8 5 15 10 15 6 0 10 7 10 15 0 10 10 15 30 15 17 0
30 5 30 10 0 6 14 10 30 10 20 0 30 5 30 15 0 10 10 15 30 15 20 0 30 5 30 15
0 8 5 15 10 15 6 0 10 7 10 15 0 10 10 15 30 15 20 0 30 5 30 15 0 10 10 15
30 15 20 0 30 5 30 15 0 8 7 15 15 15 8 0 15 5 15 10 0 6 11 10 25 10 16 0 25
6 25 15 0 10 10 15 30 15 20 0 30 5 30 15 0 10 10 15 30 15 20 0 30 5 30 15 0
8 7 15 15 15 8 0 15 7 15 15 0 9 9 15 25 15 16 0 25 6 25 15 0 10 10 15 30 15
17 0 30 5 30 10 0 6 7 10 15 10 8 0 15 7 15 15 0 9 9 15 25 15 16 0 25 6 25
15 0 10 10 15 30 15 20 0 30 5 30 15 0 10 10 15 30 15 20 0 30 5 30 15 0 8 7
15 15 15 8 0 15 7 15 15 0 9 9 15 25 15 16 0 25 6 25 15 0 10 10 15 30 15 17
0 30 5 30 10 0 6 7 10 15 10 13 0 15 83 15 685 l0 685 -30 0 c-20 0 -30 -5
-30 -15z"/>
</g>
</svg>
